<svg width="5000" height="2000" viewBox="0 0 5000 2000" fill="none" xmlns="http://www.w3.org/2000/svg">
<path d="M203 1599.41V655.493H431.041V1069.47H776.477V655.493H1004.52V1599.41H776.477V1273.08H431.041V1599.41H203Z" fill="#F2F013"/>
<path d="M1143.64 1293.31V655.493H1368.98V1296.01C1368.98 1315.79 1371.68 1333.32 1377.08 1348.6C1382.48 1363.88 1390.57 1376.47 1401.37 1386.35C1412.16 1396.24 1424.76 1404.33 1439.15 1410.63C1453.54 1416.92 1469.28 1421.86 1486.38 1425.46C1504.37 1428.16 1522.81 1429.51 1541.7 1429.51C1562.39 1429.51 1581.28 1428.16 1598.37 1425.46C1616.36 1421.86 1632.11 1416.92 1645.6 1410.63C1659.99 1404.33 1672.14 1396.24 1682.03 1386.35C1692.83 1375.57 1700.92 1362.53 1706.32 1347.25C1711.72 1331.97 1714.42 1314.89 1714.42 1296.01V655.493H1939.76V1293.31C1939.76 1340.06 1933.91 1380.96 1922.22 1416.02C1911.42 1451.08 1894.78 1481.2 1872.29 1506.37C1850.7 1531.54 1823.72 1551.77 1791.33 1567.05C1758.95 1582.33 1721.61 1593.57 1679.33 1600.76C1637.95 1608.85 1592.08 1612.9 1541.7 1612.9C1491.32 1612.9 1445.45 1608.85 1404.07 1600.76C1362.69 1593.57 1325.8 1582.33 1293.42 1567.05C1261.03 1551.77 1233.6 1531.54 1211.11 1506.37C1189.52 1481.2 1172.88 1451.08 1161.18 1416.02C1149.49 1380.96 1143.64 1340.06 1143.64 1293.31Z" fill="#F2F013"/>
<path d="M2866.16 1612.9C2838.27 1612.9 2810.38 1608.85 2782.5 1600.76C2754.61 1593.57 2726.72 1581.88 2698.84 1565.7C2671.85 1549.52 2643.96 1528.84 2615.18 1503.67C2586.39 1477.6 2556.71 1446.59 2526.12 1410.63C2496.43 1374.67 2465.4 1332.87 2433.01 1285.22C2427.62 1286.12 2419.97 1286.57 2410.08 1286.57C2401.08 1286.57 2393.43 1286.57 2387.14 1286.57C2375.44 1286.57 2362.4 1286.57 2348 1286.57C2333.61 1286.57 2320.12 1286.12 2307.52 1285.22V1599.41H2078.13V655.493C2131.21 651.897 2179.78 649.2 2223.86 647.402C2268.84 645.604 2309.77 644.256 2346.66 643.357C2384.44 642.458 2419.07 642.008 2450.56 642.008C2525.22 642.008 2588.64 647.852 2640.82 659.538C2693.89 670.326 2737.07 687.406 2770.35 710.779C2804.54 734.153 2829.28 764.718 2844.57 802.474C2859.86 839.332 2867.51 883.831 2867.51 935.971C2867.51 989.01 2859.41 1034.86 2843.22 1073.51C2827.03 1111.27 2803.64 1142.28 2773.05 1166.56C2743.37 1190.83 2708.28 1209.71 2667.8 1223.19C2691.19 1251.96 2713.23 1276.68 2733.92 1297.36C2755.51 1318.03 2775.3 1335.56 2793.29 1349.95C2812.18 1364.33 2829.73 1375.12 2845.92 1382.31C2863.01 1388.6 2879.2 1391.75 2894.49 1391.75C2897.19 1391.75 2900.79 1391.75 2905.29 1391.75C2909.79 1390.85 2913.39 1390.4 2916.08 1390.4L2917.43 1608.85C2911.14 1609.75 2903.94 1610.65 2895.84 1611.55C2887.75 1612.45 2877.85 1612.9 2866.16 1612.9ZM2447.86 1119.36C2479.34 1119.36 2506.78 1116.66 2530.17 1111.27C2553.56 1105.88 2572.45 1097.34 2586.84 1085.65C2602.13 1073.06 2613.38 1057.33 2620.57 1038.45C2628.67 1018.68 2632.72 994.404 2632.72 965.637C2632.72 930.578 2627.32 902.709 2616.53 882.033C2605.73 860.458 2587.29 844.726 2561.2 834.837C2536.02 824.949 2500.93 820.004 2455.95 820.004C2441.56 820.004 2428.97 820.004 2418.17 820.004C2408.28 820.004 2397.93 820.454 2387.14 821.353C2377.24 821.353 2366 821.802 2353.4 822.701C2340.81 823.6 2325.52 824.499 2307.52 825.398V1115.32C2321.02 1116.21 2333.16 1117.11 2343.96 1118.01C2354.75 1118.01 2365.55 1118.46 2376.34 1119.36C2387.14 1119.36 2397.93 1119.36 2408.73 1119.36C2420.42 1119.36 2433.46 1119.36 2447.86 1119.36Z" fill="#F2F013"/>
<path d="M3018.99 1599.41V655.493H3247.04V1599.41H3018.99ZM3048.68 594.812L3167.42 344H3383.32L3214.65 594.812H3048.68Z" fill="#F2F013"/>
<rect x="3916.74" y="497.561" width="769.15" height="836.501" fill="#F2F013"/>
<path d="M4424.57 1668.5C4431.47 1668.5 4437.07 1662.9 4437.07 1656V1532.27C4437.07 1525.36 4431.47 1519.77 4424.57 1519.77H3694.67V789.864C3694.67 782.961 3689.07 777.364 3682.17 777.364H3558.43C3551.53 777.364 3545.93 782.961 3545.93 789.864V1532.27C3545.93 1607.41 3607.02 1668.5 3682.17 1668.5H4424.57Z" fill="#59C9A5" stroke="#F2F013" stroke-width="25" stroke-linejoin="round"/>
<path d="M4363.19 864.496H4536.33V963.085H4363.19C4356.29 963.085 4350.69 968.682 4350.69 975.585V1148.47H4251.94V975.585C4251.94 968.682 4246.34 963.085 4239.44 963.085H4066.3V864.496H4239.44C4246.34 864.496 4251.94 858.899 4251.94 851.996V679.112H4350.69V851.996C4350.69 858.899 4356.29 864.496 4363.19 864.496ZM4672.59 406.933H3930.04C3854.9 406.933 3793.79 467.943 3793.79 543.023V1284.56C3793.79 1359.64 3854.9 1420.65 3930.04 1420.65H4672.59C4747.73 1420.65 4808.85 1359.64 4808.85 1284.56V543.023C4808.85 467.943 4747.73 406.933 4672.59 406.933Z" fill="#59C9A5" stroke="#F2F013" stroke-width="25" stroke-linejoin="round"/>
</svg>
